<svg width="52" height="26" viewBox="0 0 52 26" fill="none" xmlns="http://www.w3.org/2000/svg">
<path d="M20.389 5.6943C18.944 4.24884 17.1028 3.26438 15.0982 2.86541C13.0937 2.46644 11.0158 2.6709 9.12746 3.45291C7.23911 4.23492 5.62508 5.55937 4.4895 7.25875C3.35392 8.95812 2.7478 10.9561 2.7478 13C2.7478 15.0438 3.35392 17.0418 4.4895 18.7412C5.62508 20.4406 7.23911 21.765 9.12746 22.547C11.0158 23.329 13.0937 23.5335 15.0982 23.1345C17.1028 22.7356 18.944 21.7511 20.389 20.3056C22.6819 18.2262 24.5825 15.7517 26 13C27.4176 10.2483 29.3181 7.7737 31.611 5.6943C33.056 4.24884 34.8972 3.26438 36.9018 2.86541C38.9064 2.46644 40.9842 2.6709 42.8726 3.45291C44.7609 4.23492 46.3749 5.55937 47.5105 7.25875C48.6461 8.95812 49.2522 10.9561 49.2522 13C49.2522 15.0438 48.6461 17.0418 47.5105 18.7412C46.3749 20.4406 44.7609 21.765 42.8726 22.547C40.9842 23.329 38.9064 23.5335 36.9018 23.1345C34.8972 22.7356 33.056 21.7511 31.611 20.3056C29.3181 18.2262 27.4176 15.7517 26 13C24.5825 10.2483 22.6819 7.7737 20.389 5.6943" stroke="black" stroke-width="4" stroke-linecap="round" stroke-linejoin="round"/>
</svg>
